<svg width="154" height="41" viewBox="0 0 154 41" fill="none" xmlns="http://www.w3.org/2000/svg">
<path d="M31.2558 14.1321C30.438 13.8148 29.5179 14.2379 29.2112 15.0842L26.1444 23.758L23.0775 15.0842C22.8731 14.4495 22.2597 14.0264 21.5441 14.0264C20.8285 14.0264 20.2151 14.4495 20.0107 15.0842L16.9438 23.758L13.877 15.0842C13.5703 14.2379 12.6503 13.8148 11.8324 14.1321C11.0146 14.4495 10.6057 15.4015 10.9124 16.2477L15.5126 29.1528C15.7171 29.7875 16.3305 30.2106 17.0461 30.2106C17.7617 30.2106 18.375 29.7875 18.5795 29.1528L21.6463 20.4789L24.7132 29.1528C24.9176 29.7875 25.531 30.2106 26.2466 30.2106C26.9622 30.2106 27.5756 29.7875 27.78 29.1528L32.3803 16.2477C32.5848 15.4015 32.1758 14.4495 31.2558 14.1321Z" fill="white"/>
<path fill-rule="evenodd" clip-rule="evenodd" d="M103.884 14.0264C104.491 14.0264 104.997 14.4467 105.301 14.9722L111.171 27.7935C111.576 28.6342 111.272 29.58 110.463 30.0004C110.26 30.1055 109.957 30.2106 109.754 30.2106C109.147 30.2106 108.641 29.8953 108.337 29.2647L107.527 27.4782H100.037L99.2275 29.2647C98.8226 30.1055 97.9117 30.4208 97.1019 30.0004C96.2922 29.58 95.9885 28.6342 96.3934 27.7935L102.466 14.9722C102.669 14.3416 103.276 14.0264 103.884 14.0264ZM103.985 19.4912L101.758 24.1152H106.212L103.985 19.4912Z" fill="white"/>
<path d="M65.4048 14.0264C64.4927 14.0264 63.7832 14.762 63.7832 15.7078V28.5291C63.7832 29.4749 64.4927 30.2106 65.4048 30.2106C66.317 30.2106 67.0264 29.4749 67.0264 28.5291V15.7078C67.0264 14.762 66.317 14.0264 65.4048 14.0264Z" fill="white"/>
<path d="M43.832 17.3893C44.7165 17.3893 45.4044 16.6537 45.4044 15.7078C45.4044 14.762 44.7165 14.0264 43.832 14.0264H36.1662C35.2817 14.0264 34.5938 14.762 34.5938 15.7078V28.5291C34.5938 29.4749 35.2817 30.2106 36.1662 30.2106H43.7337C44.6182 30.2106 45.3061 29.4749 45.3061 28.5291C45.3061 27.5833 44.6182 26.8476 43.7337 26.8476H37.7387V23.7999H42.7509C43.6354 23.7999 44.3234 23.0643 44.3234 22.1185C44.3234 21.1726 43.6354 20.437 42.7509 20.437H37.7387V17.3893H43.832Z" fill="white"/>
<path d="M91.3849 17.3893C92.2775 17.3893 92.9718 16.6537 92.9718 15.7078C92.9718 14.762 92.2775 14.0264 91.3849 14.0264H83.748C82.8554 14.0264 82.1611 14.762 82.1611 15.7078V28.5291C82.1611 29.4749 82.8554 30.2106 83.748 30.2106H91.3849C92.2775 30.2106 92.9718 29.4749 92.9718 28.5291C92.9718 27.5833 92.2775 26.8476 91.3849 26.8476H85.3349V23.7999H90.3931C91.2857 23.7999 91.98 23.0643 91.98 22.1185C91.98 21.1726 91.2857 20.437 90.3931 20.437H85.3349V17.3893H91.3849Z" fill="white"/>
<path d="M79.4933 26.8476H73.4433V15.7078C73.4433 14.762 72.749 14.0264 71.8564 14.0264C70.9638 14.0264 70.2695 14.762 70.2695 15.7078V28.5291C70.2695 29.4749 70.9638 30.2106 71.8564 30.2106H79.4933C80.3859 30.2106 81.0802 29.4749 81.0802 28.5291C81.0802 27.5833 80.2868 26.8476 79.4933 26.8476Z" fill="white"/>
<path fill-rule="evenodd" clip-rule="evenodd" d="M60.829 18.6504C60.829 19.5963 60.5319 20.5421 60.0368 21.2777C61.0271 22.2236 61.6213 23.5898 61.6213 25.1661C61.6213 27.8985 59.5416 30.2106 56.8679 30.2106H50.2329C49.3416 30.2106 48.6484 29.4749 48.6484 28.5291V15.7078C48.6484 14.762 49.3416 14.0264 50.2329 14.0264H56.4717C58.8484 14.0264 60.829 16.1282 60.829 18.6504ZM51.8174 17.3893H56.4717C57.1649 17.3893 57.6601 18.0199 57.6601 18.6504C57.6601 19.3861 57.1649 19.9115 56.4717 19.9115H51.8174V17.3893ZM56.8679 26.8476H51.8174V23.2745H56.4717H56.6698H56.8679C57.7591 23.2745 58.5513 24.1152 58.5513 25.0611C58.5513 26.0069 57.7591 26.8476 56.8679 26.8476Z" fill="white"/>
<path fill-rule="evenodd" clip-rule="evenodd" d="M114.118 14.0264H120.341C123.083 14.0264 125.403 16.3384 125.403 19.1759C125.403 21.9083 123.189 24.2203 120.341 24.2203H115.806V28.5291C115.806 29.4749 115.067 30.2106 114.118 30.2106C113.169 30.2106 112.431 29.4749 112.431 28.5291V15.7078C112.431 14.762 113.169 14.0264 114.118 14.0264ZM115.806 20.8574H120.341C121.29 20.8574 122.134 20.1217 122.134 19.0708C122.134 18.125 121.29 17.2842 120.341 17.2842H115.806V20.8574Z" fill="white"/>
<path fill-rule="evenodd" clip-rule="evenodd" d="M129.254 14.0264H135.477C138.324 14.0264 140.539 16.3384 140.539 19.1759C140.539 21.9083 138.324 24.2203 135.477 24.2203H130.941V28.5291C130.941 29.4749 130.203 30.2106 129.254 30.2106C128.305 30.2106 127.566 29.4749 127.566 28.5291V15.7078C127.566 14.762 128.305 14.0264 129.254 14.0264ZM130.941 20.8574H135.477C136.426 20.8574 137.27 20.1217 137.27 19.0708C137.27 18.125 136.426 17.2842 135.477 17.2842H130.941V20.8574Z" fill="white"/>
<path d="M147.969 19.7692C145.752 19.1427 145.248 18.8294 145.248 18.3074C145.248 17.472 146.961 17.3676 147.364 17.3676C148.775 17.3676 149.985 18.0985 149.985 18.0985C150.791 18.5162 151.698 18.3074 152.202 17.472C152.605 16.6367 152.403 15.697 151.597 15.1749C151.396 15.0705 149.582 14.0264 147.364 14.0264C144.14 14.0264 142.124 15.697 142.124 18.3074C142.124 21.5442 145.248 22.3795 147.264 23.006C149.783 23.7369 150.388 24.0501 150.388 24.9899C150.388 25.8252 149.481 26.8693 147.364 26.8693C145.45 26.8693 144.543 25.9296 144.442 25.8252C144.14 25.4075 143.736 25.1987 143.233 25.1987C142.326 25.1987 141.62 25.9296 141.62 26.8693C141.62 28.1223 143.837 30.2106 147.364 30.2106C150.489 30.2106 153.512 28.4355 153.512 25.0943C153.512 21.231 150.186 20.3956 147.969 19.7692Z" fill="white"/>
<path d="M23.9552 37.8899C22.0046 38.1643 20.054 38.0729 18.1034 37.7984C17.1794 37.6155 16.3581 38.1643 16.2554 38.9876C16.0501 39.8109 16.666 40.5427 17.59 40.7256C18.822 40.9086 20.1566 41 21.4913 41C22.5179 41 23.5446 40.9086 24.5712 40.8171C25.4952 40.7256 26.1112 39.9938 25.9059 39.1705C25.7005 38.3473 24.8792 37.7984 23.9552 37.8899Z" fill="white"/>
<path d="M12.2177 35.997C9.11665 34.3847 6.59703 31.9188 5.0465 28.8839C4.65886 28.1252 3.78669 27.8407 3.01142 28.22C2.23615 28.5994 1.94543 29.453 2.33306 30.2117C4.17432 33.8156 7.08157 36.7557 10.7641 38.6525C10.9579 38.7474 11.2486 38.8422 11.4424 38.8422C12.0239 38.8422 12.5084 38.5577 12.7992 38.0835C13.1868 37.2299 12.8961 36.3763 12.2177 35.997Z" fill="white"/>
<path fill-rule="evenodd" clip-rule="evenodd" d="M6.09269 9.90755C3.79932 13.4165 2.8022 17.6478 3.30076 21.8792C3.40047 22.7048 2.8022 23.5304 1.90479 23.7368H1.70537C0.907672 23.7368 0.209688 23.1176 0.109976 22.292C-0.388583 17.1318 0.80796 11.9716 3.69961 7.74027C3.30076 7.01785 3.00162 6.08902 3.00162 5.16018C3.00162 2.27048 5.19528 0 7.98722 0C10.7792 0 12.9728 2.37368 12.9728 5.16018C12.9728 8.04989 10.6794 10.3204 7.98722 10.3204C7.28923 10.3204 6.69096 10.114 6.09269 9.90755ZM9.88174 5.05698C9.88174 4.02494 9.08405 3.19931 8.08693 3.19931C7.08981 3.19931 6.29212 4.02494 6.29212 5.05698C6.29212 6.08902 7.08981 6.91465 8.08693 6.91465C9.08405 6.91465 9.88174 6.08902 9.88174 5.05698Z" fill="white"/>
<path d="M31.2668 36.7443C30.9785 35.881 30.1135 35.4014 29.2485 35.6891C28.3835 35.9769 27.9029 36.8402 28.1912 37.7035C28.4796 38.5668 29.3446 39.0464 30.2096 38.7587C31.0746 38.4709 31.5551 37.6076 31.2668 36.7443Z" fill="white"/>
</svg>
